<svg xmlns="http://www.w3.org/2000/svg" viewBox="0 0 600 400" role="img" aria-label="Community event">
  <rect width="600" height="400" fill="#181a1c"/>
  <g fill="#FFB07a">
    <circle cx="120" cy="240" r="22"/><circle cx="200" cy="250" r="20"/>
    <circle cx="280" cy="240" r="24"/><circle cx="360" cy="250" r="20"/>
    <circle cx="440" cy="240" r="22"/><circle cx="500" cy="252" r="18"/>
  </g>
  <g fill="#FF5B22">
    <path d="M100 290 q20 -30 40 0 v60 h-40 z"/>
    <path d="M180 295 q20 -30 40 0 v55 h-40 z"/>
    <path d="M260 290 q20 -30 40 0 v60 h-40 z"/>
    <path d="M340 295 q20 -30 40 0 v55 h-40 z"/>
    <path d="M420 290 q20 -30 40 0 v60 h-40 z"/>
    <path d="M482 297 q18 -28 36 0 v53 h-36 z"/>
  </g>
  <rect x="80" y="80" width="440" height="100" rx="8" fill="#0E0E0C" stroke="#F4EFE6" stroke-opacity=".3"/>
  <text x="300" y="135" text-anchor="middle" font-family="Fraunces, serif" font-style="italic" font-size="34" fill="#F4EFE6">community</text>
  <text x="30" y="40" font-family="JetBrains Mono, monospace" font-size="11" fill="#F4EFE6" opacity=".6">audience</text>
</svg>
